ffmpeg started on 2025-05-26 at 19:09:41
Report written to "D:\Convert\FFMetrics\reports\psnr_report-6.txt"
Log level: 32
Command line:
ffmpeg -hide_banner -nostdin -i "G:\\\xc0\xed\xe8\xec\xe5\\\xce\xed\xe3\xee\xe8\xed\xe3\xe8\\!_34_\xc2\xe5\xf1\xed\xe0_2024\\DreamCast\\\xcc\xee\xe9 \xf1\xee\xf1\xe5\xe4-\xb8\xea\xe0\xe9\\[DC] Tonari no Youkai-san - 05_Telegram_HEVC.mkv" -i "G:\\\xc0\xed\xe8\xec\xe5\\\xce\xed\xe3\xee\xe8\xed\xe3\xe8\\!_34_\xc2\xe5\xf1\xed\xe0_2024\\DreamCast\\\xcc\xee\xe9 \xf1\xee\xf1\xe5\xe4-\xb8\xea\xe0\xe9\\[DC] Tonari no Youkai-san - 05_Telegram.mp4" -lavfi "[0:v]settb=AVTB,setpts=PTS-STARTPTS,format=pix_fmts=yuv420p10,fps=24000/1001,scale=1920:1080:flags=bicubic[main];[1:v]settb=AVTB,setpts=PTS-STARTPTS,format=pix_fmts=yuv420p,fps=24000/1001,scale=1920:1080:flags=bicubic[ref];[main][ref]psnr=eof_action=endall:stats_file='D\\:/Convert/FFMetrics/logs/psnr_logfile-6.txt'" -f null -
Input #0, matroska,webm, from 'G:\Аниме\Онгоинги\!_34_Весна_2024\DreamCast\Мой сосед-ёкай\[DC] Tonari no Youkai-san - 05_Telegram_HEVC.mkv':
  Metadata:
    COMPATIBLE_BRANDS: isomiso2avc1mp41
    MAJOR_BRAND     : isom
    MINOR_VERSION   : 512
    ENCODER         : Lavf61.7.100
  Duration: 00:23:46.73, start: -0.021000, bitrate: 865 kb/s
  Stream #0:0: Video: hevc (Main 10), yuv420p10le(tv, bt709, progressive), 1920x1080 [SAR 1:1 DAR 16:9], 23.98 fps, 23.98 tbr, 1k tbn (default)
      Metadata:
        HANDLER_NAME    : VideoHandler
        VENDOR_ID       : [0][0][0][0]
        ENCODER         : Lavc61.19.100 libx265
        BPS             : 668737
        DURATION        : 00:23:46.549708333
        NUMBER_OF_FRAMES: 34203
        NUMBER_OF_BYTES : 119248421
        _STATISTICS_WRITING_APP: mkvpropedit v66.0.0 ('Josie') 64-bit
        _STATISTICS_WRITING_DATE_UTC: 2025-05-26 13:19:41
        _STATISTICS_TAGS: BPS DURATION NUMBER_OF_FRAMES NUMBER_OF_BYTES
  Stream #0:1: Audio: aac (LC), 48000 Hz, stereo, fltp (default)
      Metadata:
        HANDLER_NAME    : SoundHandler
        VENDOR_ID       : [0][0][0][0]
        ENCODER         : Lavc61.19.100 aac
        BPS             : 192617
        DURATION        : 00:23:46.730000000
        NUMBER_OF_FRAMES: 66879
        NUMBER_OF_BYTES : 34351700
        _STATISTICS_WRITING_APP: mkvpropedit v66.0.0 ('Josie') 64-bit
        _STATISTICS_WRITING_DATE_UTC: 2025-05-26 13:19:41
        _STATISTICS_TAGS: BPS DURATION NUMBER_OF_FRAMES NUMBER_OF_BYTES
Input #1, mov,mp4,m4a,3gp,3g2,mj2, from 'G:\Аниме\Онгоинги\!_34_Весна_2024\DreamCast\Мой сосед-ёкай\[DC] Tonari no Youkai-san - 05_Telegram.mp4':
  Metadata:
    major_brand     : isom
    minor_version   : 512
    compatible_brands: isomiso2avc1mp41
    encoder         : Lavf60.16.100
  Duration: 00:23:46.68, start: 0.000000, bitrate: 3576 kb/s
  Stream #1:0[0x1](und): Video: h264 (High) (avc1 / 0x31637661), yuv420p(tv, bt709, progressive), 1920x1080 [SAR 1:1 DAR 16:9], 3428 kb/s, 23.98 fps, 23.98 tbr, 24k tbn (default)
      Metadata:
        handler_name    : VideoHandler
        vendor_id       : [0][0][0][0]
        encoder         : Lavc60.31.102 h264_qsv
  Stream #1:1[0x2](und): Audio: aac (HE-AACv2) (mp4a / 0x6134706D), 48000 Hz, stereo, fltp, 144 kb/s (default)
      Metadata:
        handler_name    : SoundHandler
        vendor_id       : [0][0][0][0]
Stream mapping:
  Stream #0:0 (hevc) -> settb:default
  Stream #1:0 (h264) -> settb:default
  psnr:default -> Stream #0:0 (wrapped_avframe)
  Stream #0:1 -> #0:1 (aac (native) -> pcm_s16le (native))
Output #0, null, to 'pipe:':
  Metadata:
    COMPATIBLE_BRANDS: isomiso2avc1mp41
    MAJOR_BRAND     : isom
    MINOR_VERSION   : 512
    encoder         : Lavf61.7.100
  Stream #0:0: Video: wrapped_avframe, yuv420p10le(tv, bt709, progressive), 1920x1080 [SAR 1:1 DAR 16:9], q=2-31, 200 kb/s, 23.98 fps, 23.98 tbn
      Metadata:
        encoder         : Lavc61.19.100 wrapped_avframe
  Stream #0:1: Audio: pcm_s16le, 48000 Hz, stereo, s16, 1536 kb/s (default)
      Metadata:
        HANDLER_NAME    : SoundHandler
        VENDOR_ID       : [0][0][0][0]
        _STATISTICS_TAGS: BPS DURATION NUMBER_OF_FRAMES NUMBER_OF_BYTES
        BPS             : 192617
        DURATION        : 00:23:46.730000000
        NUMBER_OF_FRAMES: 66879
        NUMBER_OF_BYTES : 34351700
        _STATISTICS_WRITING_APP: mkvpropedit v66.0.0 ('Josie') 64-bit
        _STATISTICS_WRITING_DATE_UTC: 2025-05-26 13:19:41
        encoder         : Lavc61.19.100 pcm_s16le
frame=  193 fps=0.0 q=-0.0 size=N/A time=00:00:08.04 bitrate=N/A speed=15.6x    frame=  462 fps=443 q=-0.0 size=N/A time=00:00:19.26 bitrate=N/A speed=18.5x    frame=  731 fps=472 q=-0.0 size=N/A time=00:00:30.48 bitrate=N/A speed=19.7x    frame=  926 fps=447 q=-0.0 size=N/A time=00:00:38.62 bitrate=N/A speed=18.6x    frame= 1148 fps=445 q=-0.0 size=N/A time=00:00:47.88 bitrate=N/A speed=18.6x    frame= 1365 fps=440 q=-0.0 size=N/A time=00:00:56.93 bitrate=N/A speed=18.3x    frame= 1594 fps=441 q=-0.0 size=N/A time=00:01:06.48 bitrate=N/A speed=18.4x    frame= 1808 fps=437 q=-0.0 size=N/A time=00:01:15.40 bitrate=N/A speed=18.2x    frame= 2006 fps=432 q=-0.0 size=N/A time=00:01:23.66 bitrate=N/A speed=  18x    frame= 2214 fps=429 q=-0.0 size=N/A time=00:01:32.34 bitrate=N/A speed=17.9x    frame= 2415 fps=426 q=-0.0 size=N/A time=00:01:40.72 bitrate=N/A speed=17.8x    frame= 2639 fps=426 q=-0.0 size=N/A time=00:01:50.06 bitrate=N/A speed=17.8x    frame= 2858 fps=426 q=-0.0 size=N/A time=00:01:59.20 bitrate=N/A speed=17.8x    frame= 3090 fps=428 q=-0.0 size=N/A time=00:02:08.87 bitrate=N/A speed=17.8x    frame= 3319 fps=429 q=-0.0 size=N/A time=00:02:18.42 bitrate=N/A speed=17.9x    frame= 3594 fps=435 q=-0.0 size=N/A time=00:02:29.89 bitrate=N/A speed=18.2x    frame= 3823 fps=436 q=-0.0 size=N/A time=00:02:39.45 bitrate=N/A speed=18.2x    frame= 4066 fps=438 q=-0.0 size=N/A time=00:02:49.58 bitrate=N/A speed=18.3x    frame= 4320 fps=441 q=-0.0 size=N/A time=00:03:00.18 bitrate=N/A speed=18.4x    frame= 4593 fps=445 q=-0.0 size=N/A time=00:03:11.56 bitrate=N/A speed=18.6x    frame= 4876 fps=450 q=-0.0 size=N/A time=00:03:23.36 bitrate=N/A speed=18.8x    frame= 5151 fps=454 q=-0.0 size=N/A time=00:03:34.83 bitrate=N/A speed=18.9x    frame= 5430 fps=458 q=-0.0 size=N/A time=00:03:46.47 bitrate=N/A speed=19.1x    frame= 5708 fps=461 q=-0.0 size=N/A time=00:03:58.07 bitrate=N/A speed=19.2x    frame= 5981 fps=464 q=-0.0 size=N/A time=00:04:09.45 bitrate=N/A speed=19.3x    frame= 6246 fps=465 q=-0.0 size=N/A time=00:04:20.51 bitrate=N/A speed=19.4x    frame= 6525 fps=469 q=-0.0 size=N/A time=00:04:32.14 bitrate=N/A speed=19.5x    frame= 6793 fps=470 q=-0.0 size=N/A time=00:04:43.36 bitrate=N/A speed=19.6x    frame= 7052 fps=472 q=-0.0 size=N/A time=00:04:54.12 bitrate=N/A speed=19.7x    frame= 7328 fps=474 q=-0.0 size=N/A time=00:05:05.63 bitrate=N/A speed=19.8x    frame= 7612 fps=476 q=-0.0 size=N/A time=00:05:17.48 bitrate=N/A speed=19.9x    frame= 7892 fps=478 q=-0.0 size=N/A time=00:05:29.16 bitrate=N/A speed=19.9x    frame= 8166 fps=480 q=-0.0 size=N/A time=00:05:40.59 bitrate=N/A speed=  20x    frame= 8441 fps=482 q=-0.0 size=N/A time=00:05:52.06 bitrate=N/A speed=20.1x    frame= 8705 fps=482 q=-0.0 size=N/A time=00:06:03.07 bitrate=N/A speed=20.1x    frame= 8979 fps=484 q=-0.0 size=N/A time=00:06:14.49 bitrate=N/A speed=20.2x    frame= 9246 fps=485 q=-0.0 size=N/A time=00:06:25.63 bitrate=N/A speed=20.2x    frame= 9513 fps=485 q=-0.0 size=N/A time=00:06:36.77 bitrate=N/A speed=20.2x    frame= 9763 fps=485 q=-0.0 size=N/A time=00:06:47.19 bitrate=N/A speed=20.2x    frame=10032 fps=486 q=-0.0 size=N/A time=00:06:58.41 bitrate=N/A speed=20.3x    frame=10279 fps=486 q=-0.0 size=N/A time=00:07:08.71 bitrate=N/A speed=20.3x    frame=10502 fps=485 q=-0.0 size=N/A time=00:07:18.02 bitrate=N/A speed=20.2x    frame=10745 fps=484 q=-0.0 size=N/A time=00:07:28.15 bitrate=N/A speed=20.2x    frame=11011 fps=485 q=-0.0 size=N/A time=00:07:39.25 bitrate=N/A speed=20.2x    frame=11264 fps=485 q=-0.0 size=N/A time=00:07:49.80 bitrate=N/A speed=20.2x    frame=11515 fps=485 q=-0.0 size=N/A time=00:08:00.27 bitrate=N/A speed=20.2x    frame=11784 fps=486 q=-0.0 size=N/A time=00:08:11.49 bitrate=N/A speed=20.3x    frame=12055 fps=487 q=-0.0 size=N/A time=00:08:22.79 bitrate=N/A speed=20.3x    frame=12312 fps=487 q=-0.0 size=N/A time=00:08:33.51 bitrate=N/A speed=20.3x    frame=12562 fps=487 q=-0.0 size=N/A time=00:08:43.94 bitrate=N/A speed=20.3x    frame=12846 fps=488 q=-0.0 size=N/A time=00:08:55.78 bitrate=N/A speed=20.4x    frame=13113 fps=489 q=-0.0 size=N/A time=00:09:06.92 bitrate=N/A speed=20.4x    frame=13376 fps=489 q=-0.0 size=N/A time=00:09:17.89 bitrate=N/A speed=20.4x    frame=13663 fps=490 q=-0.0 size=N/A time=00:09:29.86 bitrate=N/A speed=20.4x    frame=13927 fps=491 q=-0.0 size=N/A time=00:09:40.87 bitrate=N/A speed=20.5x    frame=14202 fps=491 q=-0.0 size=N/A time=00:09:52.34 bitrate=N/A speed=20.5x    frame=14472 fps=492 q=-0.0 size=N/A time=00:10:03.60 bitrate=N/A speed=20.5x    frame=14707 fps=491 q=-0.0 size=N/A time=00:10:13.40 bitrate=N/A speed=20.5x    frame=14976 fps=492 q=-0.0 size=N/A time=00:10:24.62 bitrate=N/A speed=20.5x    frame=15235 fps=492 q=-0.0 size=N/A time=00:10:35.42 bitrate=N/A speed=20.5x    frame=15457 fps=491 q=-0.0 size=N/A time=00:10:44.68 bitrate=N/A speed=20.5x    frame=15722 fps=492 q=-0.0 size=N/A time=00:10:55.73 bitrate=N/A speed=20.5x    frame=16002 fps=492 q=-0.0 size=N/A time=00:11:07.41 bitrate=N/A speed=20.5x    frame=16276 fps=493 q=-0.0 size=N/A time=00:11:18.84 bitrate=N/A speed=20.6x    frame=16557 fps=494 q=-0.0 size=N/A time=00:11:30.56 bitrate=N/A speed=20.6x    frame=16833 fps=494 q=-0.0 size=N/A time=00:11:42.07 bitrate=N/A speed=20.6x    frame=17098 fps=495 q=-0.0 size=N/A time=00:11:53.12 bitrate=N/A speed=20.6x    frame=17346 fps=495 q=-0.0 size=N/A time=00:12:03.47 bitrate=N/A speed=20.6x    frame=17577 fps=494 q=-0.0 size=N/A time=00:12:13.10 bitrate=N/A speed=20.6x    frame=17852 fps=494 q=-0.0 size=N/A time=00:12:24.57 bitrate=N/A speed=20.6x    frame=18129 fps=495 q=-0.0 size=N/A time=00:12:36.13 bitrate=N/A speed=20.6x    frame=18376 fps=495 q=-0.0 size=N/A time=00:12:46.43 bitrate=N/A speed=20.6x    frame=18601 fps=494 q=-0.0 size=N/A time=00:12:55.81 bitrate=N/A speed=20.6x    frame=18840 fps=494 q=-0.0 size=N/A time=00:13:05.78 bitrate=N/A speed=20.6x    frame=19114 fps=494 q=-0.0 size=N/A time=00:13:17.21 bitrate=N/A speed=20.6x    frame=19392 fps=495 q=-0.0 size=N/A time=00:13:28.80 bitrate=N/A speed=20.6x    frame=19634 fps=494 q=-0.0 size=N/A time=00:13:38.90 bitrate=N/A speed=20.6x    frame=19861 fps=494 q=-0.0 size=N/A time=00:13:48.36 bitrate=N/A speed=20.6x    frame=20092 fps=493 q=-0.0 size=N/A time=00:13:58.00 bitrate=N/A speed=20.6x    frame=20347 fps=493 q=-0.0 size=N/A time=00:14:08.63 bitrate=N/A speed=20.6x    frame=20632 fps=494 q=-0.0 size=N/A time=00:14:20.52 bitrate=N/A speed=20.6x    frame=20908 fps=494 q=-0.0 size=N/A time=00:14:32.03 bitrate=N/A speed=20.6x    frame=21187 fps=495 q=-0.0 size=N/A time=00:14:43.67 bitrate=N/A speed=20.6x    frame=21459 fps=495 q=-0.0 size=N/A time=00:14:55.01 bitrate=N/A speed=20.7x    frame=21724 fps=496 q=-0.0 size=N/A time=00:15:06.07 bitrate=N/A speed=20.7x    frame=21996 fps=496 q=-0.0 size=N/A time=00:15:17.41 bitrate=N/A speed=20.7x    frame=22237 fps=496 q=-0.0 size=N/A time=00:15:27.46 bitrate=N/A speed=20.7x    frame=22494 fps=495 q=-0.0 size=N/A time=00:15:38.18 bitrate=N/A speed=20.7x    frame=22745 fps=495 q=-0.0 size=N/A time=00:15:48.65 bitrate=N/A speed=20.7x    frame=23006 fps=496 q=-0.0 size=N/A time=00:15:59.54 bitrate=N/A speed=20.7x    frame=23281 fps=496 q=-0.0 size=N/A time=00:16:11.01 bitrate=N/A speed=20.7x    frame=23552 fps=496 q=-0.0 size=N/A time=00:16:22.31 bitrate=N/A speed=20.7x    frame=23830 fps=497 q=-0.0 size=N/A time=00:16:33.90 bitrate=N/A speed=20.7x    frame=24067 fps=496 q=-0.0 size=N/A time=00:16:43.79 bitrate=N/A speed=20.7x    frame=24301 fps=496 q=-0.0 size=N/A time=00:16:53.55 bitrate=N/A speed=20.7x    frame=24566 fps=496 q=-0.0 size=N/A time=00:17:04.60 bitrate=N/A speed=20.7x    frame=24828 fps=496 q=-0.0 size=N/A time=00:17:15.53 bitrate=N/A speed=20.7x    frame=25076 fps=496 q=-0.0 size=N/A time=00:17:25.87 bitrate=N/A speed=20.7x    frame=25290 fps=495 q=-0.0 size=N/A time=00:17:34.80 bitrate=N/A speed=20.7x    frame=25512 fps=495 q=-0.0 size=N/A time=00:17:44.06 bitrate=N/A speed=20.6x    frame=25779 fps=495 q=-0.0 size=N/A time=00:17:55.19 bitrate=N/A speed=20.6x    frame=26036 fps=495 q=-0.0 size=N/A time=00:18:05.91 bitrate=N/A speed=20.6x    frame=26299 fps=495 q=-0.0 size=N/A time=00:18:16.88 bitrate=N/A speed=20.6x    frame=26577 fps=495 q=-0.0 size=N/A time=00:18:28.48 bitrate=N/A speed=20.7x    frame=26851 fps=496 q=-0.0 size=N/A time=00:18:39.91 bitrate=N/A speed=20.7x    frame=27113 fps=496 q=-0.0 size=N/A time=00:18:50.83 bitrate=N/A speed=20.7x    frame=27380 fps=496 q=-0.0 size=N/A time=00:19:01.97 bitrate=N/A speed=20.7x    frame=27620 fps=496 q=-0.0 size=N/A time=00:19:11.98 bitrate=N/A speed=20.7x    frame=27852 fps=495 q=-0.0 size=N/A time=00:19:21.66 bitrate=N/A speed=20.7x    frame=28068 fps=495 q=-0.0 size=N/A time=00:19:30.66 bitrate=N/A speed=20.6x    frame=28339 fps=495 q=-0.0 size=N/A time=00:19:41.97 bitrate=N/A speed=20.6x    frame=28584 fps=495 q=-0.0 size=N/A time=00:19:52.19 bitrate=N/A speed=20.6x    frame=28835 fps=495 q=-0.0 size=N/A time=00:20:02.65 bitrate=N/A speed=20.6x    frame=29071 fps=494 q=-0.0 size=N/A time=00:20:12.50 bitrate=N/A speed=20.6x    frame=29338 fps=495 q=-0.0 size=N/A time=00:20:23.63 bitrate=N/A speed=20.6x    frame=29617 fps=495 q=-0.0 size=N/A time=00:20:35.27 bitrate=N/A speed=20.6x    frame=29891 fps=495 q=-0.0 size=N/A time=00:20:46.70 bitrate=N/A speed=20.7x    frame=30147 fps=495 q=-0.0 size=N/A time=00:20:57.38 bitrate=N/A speed=20.7x    frame=30446 fps=496 q=-0.0 size=N/A time=00:21:09.85 bitrate=N/A speed=20.7x    frame=30703 fps=496 q=-0.0 size=N/A time=00:21:20.57 bitrate=N/A speed=20.7x    frame=30974 fps=496 q=-0.0 size=N/A time=00:21:31.87 bitrate=N/A speed=20.7x    frame=31238 fps=496 q=-0.0 size=N/A time=00:21:42.88 bitrate=N/A speed=20.7x    frame=31504 fps=496 q=-0.0 size=N/A time=00:21:53.97 bitrate=N/A speed=20.7x    frame=31744 fps=496 q=-0.0 size=N/A time=00:22:03.98 bitrate=N/A speed=20.7x    frame=31980 fps=496 q=-0.0 size=N/A time=00:22:13.83 bitrate=N/A speed=20.7x    frame=32250 fps=496 q=-0.0 size=N/A time=00:22:25.09 bitrate=N/A speed=20.7x    frame=32472 fps=496 q=-0.0 size=N/A time=00:22:34.35 bitrate=N/A speed=20.7x    frame=32691 fps=495 q=-0.0 size=N/A time=00:22:43.48 bitrate=N/A speed=20.6x    frame=32927 fps=495 q=-0.0 size=N/A time=00:22:53.33 bitrate=N/A speed=20.6x    frame=33135 fps=494 q=-0.0 size=N/A time=00:23:02.00 bitrate=N/A speed=20.6x    frame=33419 fps=494 q=-0.0 size=N/A time=00:23:13.85 bitrate=N/A speed=20.6x    frame=33683 fps=495 q=-0.0 size=N/A time=00:23:24.86 bitrate=N/A speed=20.6x    frame=33893 fps=494 q=-0.0 size=N/A time=00:23:33.62 bitrate=N/A speed=20.6x    frame=34153 fps=494 q=-0.0 size=N/A time=00:23:44.46 bitrate=N/A speed=20.6x    [Parsed_psnr_10 @ 00000153bf038140] PSNR y:49.365320 u:50.947161 v:51.283475 average:49.873299 min:40.191635 max:inf
[out#0/null @ 00000153b1bc4e80] video:14697KiB audio:267516KiB subtitle:0KiB other streams:0KiB global headers:0KiB muxing overhead: unknown
frame=34203 fps=494 q=-0.0 Lsize=N/A time=00:23:46.55 bitrate=N/A speed=20.6x    
